<svg width="89" height="70" viewBox="0 0 89 70" fill="none" xmlns="http://www.w3.org/2000/svg">
<path d="M29.0832 33.1142C32.4831 34.6076 35.1349 36.8477 37.0388 39.8345C38.9427 42.8213 39.8946 46.3512 39.8946 50.4241C39.8946 56.2619 38.0587 61.0137 34.3869 64.6793C30.7151 68.2092 26.0234 69.9741 20.3117 69.9741C14.6 69.9741 9.84028 68.1413 6.03248 64.4757C2.36068 60.81 0.52478 56.1262 0.52478 50.4241C0.52478 47.7088 0.864762 44.9935 1.54472 42.2782C2.22469 39.563 3.72061 35.49 6.03248 30.0595L17.8638 0.734436H38.0587L29.0832 33.1142ZM77.2246 33.1142C80.6244 34.6076 83.2763 36.8477 85.1802 39.8345C87.0841 42.8213 88.036 46.3512 88.036 50.4241C88.036 56.2619 86.2001 61.0137 82.5283 64.6793C78.8565 68.2092 74.1648 69.9741 68.4531 69.9741C62.7414 69.9741 57.9817 68.1413 54.1739 64.4757C50.5021 60.81 48.6662 56.1262 48.6662 50.4241C48.6662 47.7088 49.0062 44.9935 49.6861 42.2782C50.3661 39.563 51.862 35.49 54.1739 30.0595L66.0052 0.734436H86.2001L77.2246 33.1142Z" fill="#FF6F00"/>
</svg>
