<svg width="74" height="80" viewBox="0 0 74 80" fill="none" xmlns="http://www.w3.org/2000/svg">
<path d="M28.4999 30.6258C31.7912 30.6258 34.5153 28.1522 34.9108 24.9648H22.089C22.4845 28.1522 25.2086 30.6258 28.4999 30.6258Z" fill="#FF6F00"/>
<path d="M46.1461 30.6258C49.4374 30.6258 52.1616 28.1522 52.557 24.9648H39.7352C40.1307 28.1522 42.8548 30.6258 46.1461 30.6258Z" fill="#FF6F00"/>
<path d="M54.9658 31.0399C52.9161 33.6632 49.724 35.3521 46.1459 35.3521C42.5647 35.3521 39.3711 33.6616 37.3229 31.0352C35.2747 33.6616 32.081 35.3521 28.4998 35.3521C24.9218 35.3521 21.7297 33.6632 19.6799 31.0399C19.7461 35.8106 21.7092 40.1245 24.8446 43.2614C28.0382 46.4534 32.4497 48.4292 37.3229 48.4292C46.9826 48.4292 54.8303 40.668 54.9658 31.0399Z" fill="#FF6F00"/>
<path d="M49.8013 6.01544C46.6077 2.82339 42.1961 0.847656 37.323 0.847656C30.3449 0.847656 24.3137 4.89681 21.4525 10.7736H53.1934C52.3316 9.0011 51.1799 7.39405 49.8013 6.01544V6.01544Z" fill="#FF6F00"/>
<path d="M73.7181 20.2269V15.5003H61.3674L70.0943 6.77334L67.8013 2.53906L54.6823 15.5003H19.9305C19.7635 16.474 19.6769 17.4729 19.6769 18.4938V20.2379L73.7181 20.2269Z" fill="#FF6F00"/>
<path d="M45.6401 48.4292H37.3228H28.9661C21.3562 48.4292 14.4443 51.4275 9.35059 56.3069H65.2557C60.1635 51.4275 53.2516 48.4292 45.6401 48.4292Z" fill="#FF6F00"/>
<path d="M69.223 61.0337H5.38346C4.23489 62.7495 3.26908 64.596 2.51282 66.5481H72.0936C71.3374 64.596 70.3715 62.7495 69.223 61.0337Z" fill="#FF6F00"/>
<path d="M73.4628 71.2739H1.14371C0.790784 73.0574 0.606445 74.9008 0.606445 76.7883V79.1517H74.0001V76.7883C74.0001 74.9008 73.8157 73.0574 73.4628 71.2739V71.2739Z" fill="#FF6F00"/>
</svg>
