<svg width="66" height="45" viewBox="0 0 66 45" fill="none" xmlns="http://www.w3.org/2000/svg">
<path d="M7.66977 17.1686V28.1246H1.09613V36.8895H16.4346V17.1686H7.66977Z" fill="#FF6F00"/>
<path d="M16.4345 30.3157V36.8893H64.6412V30.3157H16.4345Z" fill="#FF6F00"/>
<path d="M8.76501 34.6981C6.77495 34.6933 5.0299 36.0264 4.51205 37.948C3.99421 39.8696 4.83249 41.8993 6.55561 42.8954C8.27873 43.891 10.4555 43.6047 11.8625 42.1967C13.2689 40.7887 13.5535 38.6114 12.5558 36.8893C11.7769 35.5316 10.3303 34.6955 8.76501 34.6981Z" fill="#4B4B4B"/>
<path d="M56.9719 34.6981C54.9818 34.6933 53.2367 36.0264 52.7189 37.948C52.2011 39.8696 53.0393 41.8993 54.7625 42.8954C56.4856 43.891 58.6623 43.6047 60.0693 42.1967C61.4757 40.7887 61.7603 38.6114 60.7626 36.8893C59.9837 35.5316 58.5372 34.6955 56.9719 34.6981Z" fill="#4B4B4B"/>
<path d="M44.92 34.6981C42.93 34.6933 41.1849 36.0264 40.6671 37.948C40.1492 39.8696 40.9875 41.8993 42.7106 42.8954C44.4338 43.891 46.6105 43.6047 48.0175 42.1967C49.4239 40.7887 49.7085 38.6114 48.7108 36.8893C47.9319 35.5316 46.4853 34.6955 44.92 34.6981Z" fill="#4B4B4B"/>
<path d="M7.66977 25.9334V17.1686H5.47855L1.09613 25.9334V28.1246H7.66977V25.9334Z" fill="#E6E7E8"/>
<path d="M30.6774 1.8302H37.251V6.21262H30.6774V1.8302Z" fill="#D1D3D4"/>
<path d="M64.6414 14.9772V17.1684C64.6414 22.0093 60.7174 25.9332 55.8765 25.9332H29.582C24.7411 25.9332 20.8171 22.0093 20.8171 17.1684V14.9772C20.8171 10.1363 24.7411 6.21231 29.582 6.21231H55.8765C55.9825 6.21071 56.0884 6.21392 56.1943 6.22301C60.9084 6.38938 64.6435 10.2598 64.6414 14.9772Z" fill="#FFB655"/>
<path d="M64.6409 14.9773V17.1685C64.6409 22.0094 60.7169 25.9334 55.876 25.9334H32.0685C41.0998 20.6773 49.2425 14.0251 56.1938 6.22314C60.9079 6.38952 64.643 10.26 64.6409 14.9773Z" fill="#FFA733"/>
<path d="M7.98667 38.3029C7.5571 38.7325 7.5571 39.429 7.98667 39.8586C8.41625 40.2881 9.11277 40.2881 9.54235 39.8586C9.97192 39.429 9.97192 38.7325 9.54235 38.3029C9.11277 37.8733 8.41625 37.8733 7.98667 38.3029Z" fill="black"/>
<path d="M44.1426 38.3026C43.7173 38.7311 43.7189 39.4234 44.1469 39.8497C44.5743 40.2761 45.2666 40.2761 45.694 39.8497C46.122 39.4234 46.1236 38.7311 45.6983 38.3026C45.258 37.8998 44.5829 37.8998 44.1426 38.3026Z" fill="black"/>
<path d="M57.3878 38.0727C57.1214 37.9631 56.8218 37.9631 56.5554 38.0727C56.4211 38.1257 56.2986 38.2038 56.1937 38.3028C56.0969 38.4092 56.0193 38.5317 55.9637 38.6644C55.9075 38.796 55.8776 38.9372 55.876 39.0806C55.8803 39.3706 55.9937 39.6482 56.1937 39.8584C56.2986 39.9574 56.4211 40.0355 56.5554 40.0885C56.8207 40.2056 57.1224 40.2056 57.3878 40.0885C57.5205 40.0328 57.643 39.9553 57.7494 39.8584C58.1731 39.4262 58.1731 38.735 57.7494 38.3028C57.643 38.2059 57.5205 38.1284 57.3878 38.0727Z" fill="black"/>
<path d="M55.8759 27.0289C61.3192 27.0225 65.7299 22.6117 65.7364 17.1685V14.9773C65.7299 9.534 61.3192 5.12322 55.8759 5.1168H38.3462V1.82998C38.3462 1.22494 37.8556 0.734375 37.2506 0.734375H30.677C30.0719 0.734375 29.5814 1.22494 29.5814 1.82998V5.1168C24.1381 5.12322 19.7273 9.534 19.7209 14.9773V17.1685C19.7273 22.6117 24.1381 27.0225 29.5814 27.0289H31.7726V29.2201H17.5297V17.1685C17.5297 16.5634 17.0391 16.0729 16.4341 16.0729H5.47803C5.0629 16.0729 4.68307 16.3072 4.49744 16.679L0.115017 25.4438C0.0390523 25.5958 0 25.7632 0 25.9333V36.8894C0 37.4944 0.490562 37.985 1.09561 37.985H3.41146C3.33229 38.345 3.29056 38.712 3.28682 39.0806C3.28682 42.1058 5.73963 44.5586 8.76485 44.5586C11.7901 44.5586 14.2429 42.1058 14.2429 39.0806C14.2391 38.712 14.1974 38.345 14.1193 37.985H39.5665C39.4873 38.345 39.4456 38.712 39.4418 39.0806C39.4418 42.1058 41.8946 44.5586 44.9198 44.5586C47.9451 44.5586 50.3979 42.1058 50.3979 39.0806C50.3941 38.712 50.3524 38.345 50.2743 37.985H51.6181C51.539 38.345 51.4972 38.712 51.4935 39.0806C51.4935 42.1058 53.9463 44.5586 56.9715 44.5586C59.9967 44.5586 62.4495 42.1058 62.4495 39.0806C62.4458 38.712 62.4041 38.345 62.326 37.985H64.6408C65.2458 37.985 65.7364 37.4944 65.7364 36.8894V30.3157C65.7364 29.7107 65.2458 29.2201 64.6408 29.2201H53.6847V27.0289H55.8759ZM48.2067 18.2641H52.5891V21.5509H48.2067V18.2641ZM48.2067 16.0729V12.786H52.5891V16.0729H48.2067ZM52.5891 7.30801V10.5948H48.2067V7.30801H52.5891ZM31.7726 2.92559H36.155V5.1168H31.7726V2.92559ZM21.9121 17.1685V14.9773C21.9169 10.7435 25.3477 7.31283 29.5814 7.30801H46.0155V22.6465C46.0155 23.2515 46.506 23.7421 47.1111 23.7421H53.6847C54.2897 23.7421 54.7803 23.2515 54.7803 22.6465V7.30801H55.8759C60.1096 7.31283 63.5403 10.7435 63.5451 14.9773V17.1685C63.5403 21.4022 60.1096 24.8329 55.8759 24.8377H29.5814C25.3477 24.8329 21.9169 21.4022 21.9121 17.1685ZM2.19121 26.1917L6.15529 18.2641H6.57364V27.0289H2.19121V26.1917ZM2.19121 32.5069H5.47803V30.3157H2.19121V29.2201H7.66924C8.27429 29.2201 8.76485 28.7296 8.76485 28.1245V18.2641H15.3385V35.7938H13.1473L13.1243 35.7676C13.0804 35.7092 13.0301 35.6579 12.983 35.6001C12.8841 35.4803 12.7856 35.3631 12.6781 35.2535C12.6171 35.1914 12.5513 35.1342 12.4877 35.0753C12.386 34.9806 12.2828 34.8875 12.1742 34.8014C12.102 34.7442 12.0287 34.6917 11.9554 34.6377C11.8457 34.5601 11.736 34.4847 11.6199 34.4189C11.5413 34.3708 11.4621 34.3248 11.3803 34.2809C11.2626 34.2162 11.1422 34.1568 11.0197 34.1022C10.9363 34.0637 10.8528 34.0268 10.7688 33.9925C10.6394 33.9412 10.5067 33.8984 10.3746 33.8567C10.2911 33.8315 10.2087 33.8032 10.1247 33.7823C9.97654 33.7438 9.82675 33.7165 9.67429 33.6914C9.60207 33.678 9.52985 33.6619 9.45495 33.6518C8.99916 33.5902 8.53695 33.5902 8.08116 33.6518C8.00787 33.6619 7.93565 33.678 7.86183 33.6914C7.7099 33.7165 7.55957 33.7438 7.41192 33.7823C7.3274 33.8032 7.24502 33.8315 7.1621 33.8567C7.02943 33.8984 6.89675 33.9412 6.76729 33.9925C6.6833 34.0257 6.59985 34.0626 6.518 34.1022C6.39496 34.1568 6.27459 34.2119 6.15636 34.2809C6.07398 34.3248 5.99534 34.3708 5.9151 34.4189C5.80543 34.489 5.69041 34.5633 5.58128 34.6377C5.50638 34.6917 5.43309 34.7474 5.36194 34.8014C5.25227 34.8875 5.15063 34.9796 5.04845 35.0753C4.98479 35.1342 4.91953 35.1914 4.85801 35.2535C4.74834 35.3631 4.65098 35.4813 4.55201 35.6012C4.506 35.6568 4.45571 35.7103 4.41185 35.7665L4.38242 35.7938H2.19121V32.5069ZM8.76485 42.3674C6.94972 42.3674 5.47803 40.8957 5.47803 39.0806C5.47696 38.0572 5.95254 37.0916 6.76462 36.4689C7.57669 35.8462 8.63218 35.637 9.62025 35.9034C10.1723 36.0538 10.6757 36.3448 11.0807 36.7481C11.2856 36.9514 11.4621 37.1815 11.6055 37.4318C11.8987 37.932 12.0527 38.5012 12.0517 39.0806C12.0517 40.8957 10.58 42.3674 8.76485 42.3674ZM44.9198 42.3674C43.1047 42.3674 41.633 40.8957 41.633 39.0806C41.632 38.0572 42.1075 37.0916 42.9196 36.4689C43.7317 35.8462 44.7872 35.637 45.7753 35.9034C46.3273 36.0538 46.8307 36.3448 47.2357 36.7481C47.4406 36.9514 47.6171 37.1815 47.7605 37.4318C48.0537 37.932 48.2077 38.5012 48.2067 39.0806C48.2067 40.8957 46.735 42.3674 44.9198 42.3674ZM56.9715 42.3674C55.1564 42.3674 53.6847 40.8957 53.6847 39.0806C53.6836 38.0572 54.1592 37.0916 54.9713 36.4689C55.7834 35.8462 56.8388 35.637 57.8269 35.9034C58.379 36.0538 58.8824 36.3448 59.2874 36.7481C59.4923 36.9514 59.6688 37.1815 59.8122 37.4318C60.1053 37.932 60.2594 38.5012 60.2583 39.0806C60.2583 40.8957 58.7866 42.3674 56.9715 42.3674ZM63.5451 35.7938H61.3539L61.3309 35.7676C61.2871 35.7092 61.2368 35.6579 61.1897 35.6001C61.0907 35.4803 60.9923 35.3631 60.8848 35.2535C60.8238 35.1914 60.758 35.1342 60.6943 35.0753C60.5927 34.9806 60.4894 34.8875 60.3808 34.8014C60.3086 34.7442 60.2353 34.6917 60.162 34.6377C60.0524 34.5601 59.9427 34.4847 59.8266 34.4189C59.748 34.3708 59.6688 34.3248 59.5869 34.2809C59.4693 34.2162 59.3489 34.1568 59.2264 34.1022C59.1429 34.0637 59.0595 34.0268 58.9755 33.9925C58.846 33.9412 58.7134 33.8984 58.5812 33.8567C58.4978 33.8315 58.4154 33.8032 58.3314 33.7823C58.1832 33.7438 58.0334 33.7165 57.8809 33.6914C57.8087 33.678 57.7365 33.6619 57.6616 33.6518C57.2058 33.5902 56.7436 33.5902 56.2878 33.6518C56.2145 33.6619 56.1423 33.678 56.0685 33.6914C55.9166 33.7165 55.7662 33.7438 55.6186 33.7823C55.5341 33.8032 55.4517 33.8315 55.3688 33.8567C55.2361 33.8984 55.1034 33.9412 54.974 33.9925C54.89 34.0257 54.8065 34.0626 54.7247 34.1022C54.6016 34.1568 54.4813 34.2119 54.363 34.2809C54.2806 34.3248 54.202 34.3708 54.1218 34.4189C54.0121 34.489 53.903 34.5633 53.7933 34.6377C53.7184 34.6917 53.6451 34.7474 53.574 34.8014C53.4643 34.8875 53.3626 34.9796 53.2605 35.0753C53.1973 35.1342 53.1315 35.1914 53.07 35.2535C52.9604 35.3631 52.863 35.4813 52.7646 35.6012C52.7185 35.6568 52.6677 35.7103 52.6244 35.7665L52.5891 35.7938H49.3023L49.2793 35.7676C49.2354 35.7092 49.1851 35.6579 49.138 35.6001C49.0391 35.4803 48.9406 35.3631 48.8331 35.2535C48.7721 35.1914 48.7063 35.1342 48.6427 35.0753C48.541 34.9806 48.4378 34.8875 48.3292 34.8014C48.2569 34.7442 48.1837 34.6917 48.1104 34.6377C48.0007 34.5601 47.891 34.4847 47.7749 34.4189C47.6963 34.3708 47.6171 34.3248 47.5353 34.2809C47.4176 34.2162 47.2972 34.1568 47.1747 34.1022C47.0913 34.0637 47.0078 34.0268 46.9238 33.9925C46.7944 33.9412 46.6617 33.8984 46.5296 33.8567C46.4461 33.8315 46.3637 33.8032 46.2797 33.7823C46.1315 33.7438 45.9817 33.7165 45.8293 33.6914C45.7571 33.678 45.6848 33.6619 45.6099 33.6518C45.1542 33.5902 44.692 33.5902 44.2362 33.6518C44.1629 33.6619 44.0907 33.678 44.0168 33.6914C43.8649 33.7165 43.7146 33.7438 43.5669 33.7823C43.4824 33.8032 43.4 33.8315 43.3171 33.8567C43.1844 33.8984 43.0518 33.9412 42.9223 33.9925C42.8383 34.0257 42.7548 34.0626 42.673 34.1022C42.55 34.1568 42.4296 34.2119 42.3114 34.2809C42.229 34.3248 42.1503 34.3708 42.0701 34.4189C41.9604 34.489 41.8513 34.5633 41.7416 34.6377C41.6667 34.6917 41.5934 34.7474 41.5223 34.8014C41.4126 34.8875 41.311 34.9796 41.2088 35.0753C41.1457 35.1342 41.0799 35.1914 41.0184 35.2535C40.9087 35.3631 40.8113 35.4813 40.7129 35.6012C40.6669 35.6568 40.6161 35.7103 40.5727 35.7665L40.5374 35.7938H17.5297V31.4113H63.5451V35.7938ZM51.4935 29.2201H33.9638V27.0289H51.4935V29.2201Z" fill="#292929"/>
</svg>
