<svg width="41" height="41" viewBox="0 0 41 41" fill="none" xmlns="http://www.w3.org/2000/svg">
<path d="M20.14 40.28C31.263 40.28 40.28 31.263 40.28 20.14C40.28 9.01698 31.263 0 20.14 0C9.01698 0 0 9.01698 0 20.14C0 31.263 9.01698 40.28 20.14 40.28Z" fill="#FF6F00"/>
<path d="M30.23 24.3598C30.2 24.3398 30.17 24.3198 30.14 24.2998L26.34 22.1098L26.28 22.0798C26.26 22.0698 26.24 22.0598 26.22 22.0498C24.63 21.3098 23.53 22.7598 22.87 23.6298C22.75 23.7798 22.59 23.9998 22.48 24.1098C22.38 24.2098 22.32 24.2598 22.27 24.2898C20.77 23.5098 19.52 22.5898 18.46 21.4598C17.58 20.5198 16.8 19.4498 16.04 18.0698C16.1 17.8998 16.57 17.5598 16.77 17.4098C16.94 17.2798 17.1 17.1698 17.24 17.0498C17.79 16.6398 18.16 16.2198 18.36 15.7598C18.65 15.0798 18.56 14.4098 18.1 13.7998L15.69 9.71978C15.51 9.39978 15.18 9.18978 14.82 9.15978C13.33 9.02978 12.07 9.36978 11.07 10.1798C10.08 10.9698 9.42996 12.1798 9.18996 13.6798C8.83996 15.8898 9.37996 18.3898 10.77 20.9098C12.16 23.4098 14.35 25.9098 16.8 27.7598C17.38 28.1898 17.98 28.5598 18.5 28.8898L18.7 29.0198C20.07 29.8698 21.22 30.4198 22.31 30.7598C23.17 31.0298 24.01 31.1598 24.84 31.1598C25.23 31.1598 25.63 31.1298 26.02 31.0698C27.01 30.9298 27.78 30.7098 28.44 30.4098C29.37 29.9898 30.08 29.3598 30.55 28.5398C30.96 27.8298 31.19 27.0298 31.19 26.3398C31.19 25.4898 30.86 24.8098 30.23 24.3598ZM29.49 27.9298C29.15 28.5298 28.64 28.9698 27.94 29.2898C27.38 29.5498 26.72 29.7198 25.85 29.8598C24.79 30.0098 23.78 29.9298 22.68 29.5898C21.69 29.2898 20.64 28.7698 19.36 27.9898L19.16 27.8598C18.63 27.5298 18.08 27.1798 17.54 26.7898C15.23 25.0398 13.15 22.6898 11.85 20.3298C10.59 18.0598 10.09 15.8298 10.4 13.8898C10.53 13.0598 10.89 11.9198 11.84 11.1598C12.48 10.6498 13.27 10.3898 14.22 10.3898C14.36 10.3898 14.5 10.3998 14.65 10.4098L17.06 14.4898L17.1 14.5498C17.31 14.8198 17.35 15.0398 17.23 15.3098C17.12 15.5598 16.88 15.8298 16.5 16.0998L16.46 16.1298C16.35 16.2198 16.21 16.3298 16.05 16.4398C15.47 16.8598 14.5 17.5698 14.89 18.5498L14.92 18.6098C15.76 20.1198 16.6 21.2998 17.57 22.3198C18.75 23.5698 20.13 24.5898 21.81 25.4498C22.08 25.5798 22.38 25.5898 22.65 25.4898C22.88 25.3998 23.1 25.2398 23.36 24.9898C23.49 24.8598 23.64 24.6798 23.86 24.3798C24.66 23.3298 25.12 22.8998 25.7 23.1698C25.72 23.1798 25.74 23.1898 25.76 23.1998L29.51 25.3598L29.53 25.3698C29.83 25.5698 29.97 25.8998 29.98 26.3398C29.97 26.8198 29.8 27.3898 29.49 27.9298Z" fill="#F9F9F9"/>
</svg>
