<svg width="88" height="56" viewBox="0 0 88 56" fill="none" xmlns="http://www.w3.org/2000/svg">
<path d="M81.7054 48.709C81.7054 48.2778 81.6617 47.8474 81.575 47.4247C81.5573 47.3357 81.5152 47.2505 81.4937 47.1608C81.4139 46.8278 81.3088 46.501 81.1791 46.1833C80.738 45.199 80.0544 44.3435 79.1913 43.6968C78.1118 42.8628 76.7845 42.4148 75.4204 42.424C72.8671 42.4163 70.5616 43.9492 69.5811 46.3061C68.6006 48.6637 69.1384 51.3797 70.9437 53.1849C72.7497 54.9902 75.4657 55.5288 77.8225 54.5483C80.1802 53.5678 81.7131 51.2615 81.7054 48.709V48.709ZM75.4204 51.8515C73.6849 51.8515 72.2779 50.4444 72.2779 48.709C72.2779 46.9728 73.6849 45.5665 75.4204 45.5665C77.1558 45.5665 78.5629 46.9728 78.5629 48.709C78.5629 50.4444 77.1558 51.8515 75.4204 51.8515Z" fill="#FF6F00"/>
<path d="M20.4264 18.8555H14.4176L7.85632 28.181V29.8543H20.4264V18.8555Z" fill="#FF6F00"/>
<path d="M61.279 48.7091C61.279 48.278 61.2353 47.8475 61.1486 47.4248C61.1233 47.2998 61.0673 47.1801 61.0343 47.0558C60.9637 46.7612 60.8732 46.4719 60.7619 46.1904C60.7335 46.1244 60.6929 46.0661 60.6614 46.0016C60.5617 45.786 60.4504 45.5766 60.3284 45.3733C60.2594 45.2659 60.1712 45.1723 60.1037 45.0679C59.9985 44.9237 59.9011 44.7725 59.7891 44.6375C59.6778 44.5025 59.5336 44.3736 59.4016 44.2447C59.318 44.1618 59.2444 44.0705 59.1546 43.9938C58.9728 43.8388 58.7817 43.6938 58.5846 43.5596C58.5339 43.525 58.4902 43.4829 58.438 43.4483C58.1994 43.2941 57.9508 43.1552 57.6931 43.0333L57.6524 43.0118C57.4138 42.9021 57.1683 42.8077 56.9174 42.7302C56.8798 42.7179 56.8453 42.6988 56.8085 42.688C53.758 41.7689 50.5019 43.2749 49.2261 46.195C48.5356 47.8053 48.5356 49.6283 49.2261 51.2386C50.2319 53.5257 52.4944 55.0018 54.9932 55.0018C57.492 55.0018 59.7546 53.5257 60.7604 51.2386C61.1033 50.4392 61.2798 49.5784 61.279 48.7091V48.7091ZM54.994 51.8516C53.2585 51.8516 51.8515 50.4446 51.8515 48.7091C51.8515 46.9729 53.2585 45.5666 54.994 45.5666C56.7294 45.5666 58.1365 46.9729 58.1365 48.7091C58.1365 50.4446 56.7294 51.8516 54.994 51.8516Z" fill="#FF6F00"/>
<path d="M20.4264 48.7091C20.4348 45.7254 18.3449 43.1475 15.4249 42.5383C12.5041 41.9292 9.55798 43.4567 8.3734 46.1949C7.68291 47.8053 7.68291 49.6282 8.3734 51.2386C9.37922 53.5256 11.6417 55.0018 14.1406 55.0018C16.6394 55.0018 18.9019 53.5256 19.9077 51.2386C20.2507 50.4391 20.4271 49.5783 20.4264 48.7091V48.7091ZM14.1413 51.8516C12.4059 51.8516 10.9988 50.4445 10.9988 48.7091C10.9988 46.9729 12.4059 45.5665 14.1413 45.5665C15.8768 45.5665 17.2838 46.9729 17.2838 48.7091C17.2838 50.4445 15.8768 51.8516 14.1413 51.8516Z" fill="#FF6F00"/>
<path d="M66.1232 47.1377H64.2911C64.3003 47.1906 64.2911 47.2459 64.3049 47.2942C64.4607 48.2279 64.4607 49.18 64.3049 50.1137C64.2973 50.1667 64.3049 50.2219 64.2911 50.2702H66.1232C66.114 50.2158 66.1232 50.159 66.1094 50.1022C65.9537 49.1716 65.9537 48.221 66.1094 47.2896C66.1171 47.2459 66.114 47.1906 66.1232 47.1377Z" fill="#FF6F00"/>
<path d="M67.357 43.8377C67.4399 43.7027 67.5327 43.5753 67.621 43.4449C67.7782 43.2078 67.9478 42.9731 68.1265 42.7567C68.2286 42.6324 68.3375 42.5158 68.4411 42.3969C68.6275 42.1928 68.8193 41.9949 69.0227 41.8077C69.1431 41.6956 69.2659 41.589 69.3932 41.4839C69.6027 41.312 69.816 41.1494 70.0323 40.9967C70.1712 40.9008 70.3077 40.8064 70.4504 40.7174C70.6752 40.577 70.9077 40.4512 71.1432 40.3308C71.3005 40.2533 71.444 40.1735 71.599 40.106C71.8445 39.9955 72.0969 39.9065 72.3531 39.8167C72.5104 39.763 72.6677 39.704 72.825 39.6595C73.1073 39.5781 73.3966 39.5214 73.6873 39.4661C73.8254 39.4393 73.9605 39.4017 74.1024 39.3817C75.0614 39.2406 76.0358 39.2513 76.9917 39.4132C77.169 39.4416 77.3377 39.5006 77.5119 39.5405C77.8426 39.6073 78.1702 39.6924 78.4924 39.7945C78.5147 39.8029 78.5392 39.806 78.5615 39.8137V37.71H43.9953V43.995H46.8233C46.8547 43.9398 46.8977 43.8907 46.9307 43.8377C47.0135 43.7027 47.1064 43.5753 47.1946 43.4449C47.3519 43.2078 47.5214 42.9731 47.7002 42.7567C47.8022 42.6324 47.9112 42.5158 48.0147 42.3969C48.2012 42.1928 48.393 41.9949 48.5963 41.8077C48.7167 41.6956 48.8395 41.589 48.9669 41.4839C49.1763 41.312 49.3896 41.1494 49.606 40.9967C49.7448 40.9008 49.8814 40.8064 50.0241 40.7174C50.2489 40.577 50.4813 40.4512 50.7169 40.3308C50.8742 40.2533 51.0176 40.1735 51.1726 40.106C51.4181 39.9955 51.6705 39.9065 51.9268 39.8167C52.0841 39.763 52.2413 39.704 52.3986 39.6595C52.681 39.5781 52.9702 39.5214 53.261 39.4661C53.3991 39.4393 53.5341 39.4017 53.676 39.3817C54.5522 39.2513 55.4422 39.2513 56.3183 39.3817C56.4618 39.4017 56.5984 39.4393 56.7395 39.4661C57.0272 39.5214 57.3149 39.5781 57.5942 39.6579C57.7515 39.7055 57.9088 39.7684 58.066 39.8229C58.3154 39.9096 58.5624 39.9978 58.8026 40.1044C58.9598 40.1766 59.1171 40.2617 59.2744 40.3415C59.4992 40.4566 59.7202 40.5755 59.9342 40.709C60.0915 40.8049 60.2388 40.9085 60.3899 41.0128C60.5925 41.1555 60.7904 41.3044 60.9822 41.4632C61.1249 41.5813 61.2638 41.7026 61.3988 41.8276C61.5822 41.9979 61.7556 42.1767 61.9251 42.3608C62.051 42.4974 62.1745 42.6324 62.2911 42.7751C62.4484 42.9731 62.6057 43.1825 62.7468 43.3943C62.8504 43.5439 62.957 43.6896 63.0514 43.8469C63.0844 43.8991 63.1235 43.9444 63.1535 44.0042H67.2389C67.2811 43.9398 67.324 43.8907 67.357 43.8377V43.8377Z" fill="#FF6F00"/>
<path d="M45.6969 47.1377H23.4385C23.4477 47.1922 23.4385 47.2489 23.4523 47.3057C23.608 48.2363 23.608 49.1869 23.4523 50.1183C23.4523 50.1713 23.4523 50.2265 23.4385 50.2748H45.6969C45.6877 50.2204 45.6969 50.1636 45.6831 50.1068C45.5274 49.1762 45.5274 48.2256 45.6831 47.2942C45.6908 47.2459 45.6877 47.1906 45.6969 47.1377Z" fill="#FF6F00"/>
<path d="M37.2122 6.28516C33.6792 15.3805 33.6761 25.4694 37.2023 34.5678H85.352C88.8812 25.4702 88.8812 15.382 85.352 6.28516H53.4227V20.4265C53.4227 21.2942 52.7192 21.9977 51.8515 21.9977C50.9838 21.9977 50.2802 21.2942 50.2802 20.4265V18.8552H43.9952V20.4265C43.9952 21.2942 43.2917 21.9977 42.4239 21.9977C41.5562 21.9977 40.8527 21.2942 40.8527 20.4265V6.28516H37.2122Z" fill="#FF6F00"/>
<path d="M4.8442 47.1377H0V50.2802H4.8442C4.835 50.225 4.8442 50.1682 4.83039 50.1114C4.67465 49.1808 4.67465 48.2302 4.83039 47.2996C4.83806 47.2459 4.835 47.1906 4.8442 47.1377Z" fill="#FF6F00"/>
<path d="M43.9953 6.28516H50.2803V9.42767H43.9953V6.28516Z" fill="#FF6F00"/>
<path d="M43.9953 12.5698H50.2803V15.7123H43.9953V12.5698Z" fill="#FF6F00"/>
<path d="M84.7175 50.2802H87.9904V47.1377H84.7175C84.7267 47.1906 84.7175 47.2459 84.7313 47.2942C84.887 48.2279 84.887 49.18 84.7313 50.1137C84.7236 50.1713 84.7267 50.2265 84.7175 50.2802Z" fill="#FF6F00"/>
<path d="M21.0832 42.3578C21.209 42.4943 21.3333 42.6293 21.4492 42.7721C21.6064 42.97 21.7637 43.1794 21.9049 43.3912C22.0085 43.5408 22.1159 43.6866 22.2095 43.8439C22.2425 43.896 22.2823 43.9413 22.3123 44.0011H26.7115V12.5698H11.8175L1.57135 27.206V43.995H5.97057C6.00202 43.9398 6.04499 43.8907 6.07798 43.8377C6.16084 43.7027 6.25367 43.5753 6.3419 43.4449C6.49918 43.2078 6.66873 42.9731 6.8475 42.7567C6.94953 42.6324 7.05848 42.5158 7.16205 42.3969C7.34849 42.1928 7.54029 41.9949 7.7436 41.8077C7.86406 41.6956 7.98681 41.589 8.11417 41.4839C8.32362 41.312 8.53691 41.1494 8.75326 40.9967C8.89213 40.9008 9.02869 40.8064 9.17139 40.7174C9.39619 40.577 9.62865 40.4512 9.86419 40.3308C10.0215 40.2533 10.1649 40.1735 10.3199 40.106C10.5654 39.9955 10.8178 39.9065 11.0741 39.8167C11.2314 39.763 11.381 39.704 11.5459 39.6595C11.8283 39.5781 12.1175 39.5214 12.4083 39.4661C12.5464 39.4393 12.6814 39.4017 12.8233 39.3817C13.6995 39.2513 14.5895 39.2513 15.4656 39.3817C15.6091 39.4017 15.7457 39.4393 15.8868 39.4661C16.1745 39.5214 16.4622 39.5781 16.7415 39.6579C16.8988 39.7055 17.0561 39.7684 17.2134 39.8229C17.4627 39.9096 17.7097 39.9978 17.9499 40.1044C18.1072 40.1766 18.2644 40.2617 18.4217 40.3415C18.6465 40.4566 18.8675 40.5755 19.0815 40.709C19.2388 40.8049 19.3861 40.9085 19.5372 41.0128C19.7398 41.1555 19.9377 41.3044 20.1295 41.4632C20.2722 41.5813 20.4111 41.7026 20.5461 41.8276C20.741 41.9949 20.9136 42.1736 21.0832 42.3578ZM4.71387 27.6817C4.7131 27.3587 4.81361 27.0426 5.00004 26.7787L12.317 16.3798C12.6116 15.9609 13.0911 15.7123 13.6028 15.7123H21.9977C22.8654 15.7123 23.569 16.4159 23.569 17.2836V31.4249C23.569 32.2926 22.8654 32.9962 21.9977 32.9962H6.28513C5.4174 32.9962 4.71387 32.2926 4.71387 31.4249V27.6817ZM6.28513 37.71C5.4174 37.71 4.71387 37.0064 4.71387 36.1387C4.71387 35.271 5.4174 34.5674 6.28513 34.5674H21.9977C22.8654 34.5674 23.569 35.271 23.569 36.1387C23.569 37.0064 22.8654 37.71 21.9977 37.71H6.28513Z" fill="#FF6F00"/>
<path d="M72.278 1.57129H78.563V3.14255H72.278V1.57129Z" fill="#FF6F00"/>
<path d="M42.4239 0C41.5562 0 40.8527 0.703537 40.8527 1.57126V3.14252H43.9952V1.57126C43.9952 0.703537 43.2916 0 42.4239 0V0Z" fill="#FF6F00"/>
<path d="M53.4228 1.57126C53.4228 0.703537 52.7193 0 51.8515 0C50.9838 0 50.2803 0.703537 50.2803 1.57126V3.14252H53.4228V1.57126Z" fill="#FF6F00"/>
</svg>
