<svg width="54" height="55" viewBox="0 0 54 55" fill="none" xmlns="http://www.w3.org/2000/svg">
<path d="M19.8595 46.4502H33.7306V51.0843H19.8595V46.4502Z" fill="#363636" stroke="#363636" stroke-width="0.908278"/>
<path d="M0.461533 42.7171V39.9844H53.1288V42.7171V42.7308L53.1296 42.7445C53.2462 44.6686 51.7928 46.327 49.8722 46.4658H3.71813C1.7974 46.3269 0.344142 44.6685 0.460702 42.7445L0.461533 42.7308V42.7171Z" fill="#363636" stroke="#363636" stroke-width="0.908278"/>
<path d="M53.1298 4.90979L53.129 4.9235V4.93723V39.0763H0.461716V4.93723V4.92349L0.460885 4.90977C0.344323 2.98571 1.7976 1.32729 3.7183 1.18851H49.8723C51.793 1.32729 53.2463 2.98571 53.1298 4.90979Z" stroke="url(#paint0_linear_0_845)" stroke-width="0.908278"/>
<path d="M17.5576 9.24161V20.7142C17.548 20.9098 17.3838 21.0617 17.1881 21.056H6.84244C6.64865 21.0659 6.48343 20.9172 6.47296 20.7234V9.24161L11.7289 4.53062C11.8947 4.39197 12.1359 4.39197 12.3016 4.53062L17.5576 9.24161Z" fill="#FF6F00"/>
<path d="M12.0153 24.7507V30.2931L7.39676 33.0643L7.26742 33.1473C6.74443 32.2874 6.46944 31.2995 6.473 30.2931C6.4731 27.2321 8.95442 24.7507 12.0153 24.7507Z" fill="#F0C419"/>
<path d="M17.5577 30.2931C17.5621 31.7636 16.9765 33.1745 15.9319 34.2096L12.0153 30.2931V24.7507C15.0762 24.7508 17.5577 27.2322 17.5577 30.2931Z" fill="#FF6F00"/>
<path d="M15.932 34.2095C14.7275 35.4172 13.0334 36.0019 11.3403 35.7944C9.64734 35.5868 8.14461 34.6102 7.26752 33.1474L7.39685 33.0643L12.0154 30.2931L15.932 34.2095Z" fill="#FF923E"/>
<path d="M30.4896 5.35278H32.3371C32.8472 5.35278 33.2608 5.76632 33.2608 6.27654V17.3611H29.566V6.27644C29.5659 5.76632 29.9795 5.35278 30.4896 5.35278Z" fill="#FF6F00"/>
<path d="M37.6303 9.97131H39.9765C40.3489 9.97131 40.6508 10.2732 40.6508 10.6456V17.3611H36.956V10.6457C36.956 10.2733 37.2579 9.97131 37.6303 9.97131Z" fill="#FF6F00"/>
<path d="M44.879 12.7426H47.507C47.8013 12.7426 48.04 12.9811 48.04 13.2756V17.3611H44.346V13.2756C44.3461 12.9812 44.5847 12.7426 44.879 12.7426Z" fill="#FF6F00"/>
<path d="M25.8719 33.0642C25.4983 33.0641 25.1616 32.839 25.0186 32.4939C24.8757 32.1488 24.9547 31.7516 25.2188 31.4874L28.5313 28.1749C29.6281 27.1283 31.3538 27.1283 32.4506 28.1749L33.5322 29.2575C33.8929 29.6181 34.4776 29.6181 34.8383 29.2575L38.6921 25.4038C39.7886 24.3573 41.514 24.3573 42.6106 25.4038L43.6932 26.4864C44.0539 26.8469 44.6386 26.8469 44.9993 26.4864L48.3118 23.1748C48.6742 22.8248 49.2504 22.8297 49.6067 23.1861C49.963 23.5424 49.968 24.1186 49.618 24.481L46.3055 27.7935C45.2221 28.8722 43.4705 28.8722 42.387 27.7935L41.3044 26.71C40.9395 26.3597 40.3632 26.3597 39.9983 26.71L36.1446 30.5638C35.0624 31.6455 33.3083 31.6455 32.2261 30.5638L31.1435 29.4811C30.7785 29.1309 30.2023 29.1309 29.8374 29.4811L26.5249 32.7936C26.3517 32.9668 26.1168 33.0642 25.8719 33.0642Z" fill="#FF6F00"/>
<path d="M14.7865 51.0691H38.8031C40.0827 51.0691 41.1201 52.1065 41.1201 53.3862V53.8558H12.4695V53.3862C12.4695 52.1065 13.5068 51.0691 14.7865 51.0691Z" fill="#363636" stroke="#363636" stroke-width="0.908278"/>
<path d="M19.4052 11.8187C19.1778 11.8187 18.9585 11.7348 18.789 11.5832L12.0154 5.51993L5.24176 11.5832C4.86108 11.9177 4.2819 11.8831 3.94381 11.5054C3.60571 11.1278 3.63501 10.5484 4.00952 10.2069L11.1148 3.84612C11.6232 3.39794 12.3839 3.39198 12.8994 3.8323L20.0213 10.2059C20.3073 10.4612 20.4058 10.8666 20.2691 11.2247C20.1322 11.5827 19.7885 11.8191 19.4052 11.8187Z" fill="#FF6F00"/>
<path d="M6.47302 10.165C5.9629 10.165 5.54926 9.75151 5.54926 9.24128V6.73809C5.54926 6.22797 5.96279 5.81433 6.47302 5.81433C6.98324 5.81433 7.39678 6.22787 7.39678 6.73809V9.24139C7.39667 9.75151 6.98313 10.165 6.47302 10.165Z" fill="#FF6F00"/>
<path d="M48.9645 18.2849H27.7189C26.1885 18.2849 24.9478 17.0442 24.9478 15.5137V4.42913C24.9478 3.91901 25.3613 3.50537 25.8715 3.50537C26.3817 3.50537 26.7953 3.91891 26.7953 4.42913V15.5137C26.7953 16.0238 27.2088 16.4375 27.719 16.4375H48.9645C49.4746 16.4375 49.8882 16.851 49.8882 17.3612C49.8882 17.8715 49.4746 18.2849 48.9645 18.2849Z" fill="#363636"/>
<path d="M48.9641 36.759H27.7186C26.1881 36.759 24.9474 35.5183 24.9474 33.9879V22.9034C24.9474 22.3933 25.3609 21.9796 25.8711 21.9796C26.3814 21.9796 26.7949 22.3932 26.7949 22.9034V33.988C26.7949 34.4981 27.2084 34.9117 27.7187 34.9117H48.9641C49.4742 34.9117 49.8879 35.3253 49.8879 35.8355C49.8879 36.3457 49.4742 36.759 48.9641 36.759Z" fill="#363636"/>
<defs>
<linearGradient id="paint0_linear_0_845" x1="26.7863" y1="39.5342" x2="26.7863" y2="0.734375" gradientUnits="userSpaceOnUse">
<stop stop-color="#F9371E"/>
<stop offset="0.0931371" stop-color="#FA4520"/>
<stop offset="0.3544" stop-color="#FC6923"/>
<stop offset="0.6002" stop-color="#FE8226"/>
<stop offset="0.8224" stop-color="#FF9227"/>
<stop offset="1" stop-color="#FF9728"/>
</linearGradient>
</defs>
</svg>
