<svg width="72" height="72" viewBox="0 0 72 72" fill="none" xmlns="http://www.w3.org/2000/svg">
<path d="M35.1566 27.1899C30.5404 27.1899 26.7849 30.9455 26.7849 35.5615C26.7849 40.1776 30.5404 43.9332 35.1566 43.9332C37.3177 43.9332 39.2901 43.11 40.777 41.7605C40.9951 41.5272 41.2185 41.2991 41.4472 41.0762C42.7411 39.6021 43.5281 37.6726 43.5281 35.5615C43.5281 30.9455 39.7726 27.1899 35.1566 27.1899V27.1899Z" fill="#FF6F00"/>
<path d="M22.5663 35.5607C22.5663 28.6183 28.2144 22.9704 35.1568 22.9704C42.0991 22.9704 47.7471 28.6183 47.7471 35.5607C47.7471 36.0156 47.7222 36.4648 47.6749 36.9073C49.162 36.2682 50.7394 35.801 52.3821 35.5292C52.3649 26.0453 44.6446 18.335 35.1568 18.335C25.6584 18.335 17.9309 26.0623 17.9309 35.5607C17.9309 45.0591 25.6584 52.7865 35.1568 52.7865C35.2608 52.7865 35.3636 52.7819 35.4673 52.7801C35.7065 51.1324 36.1425 49.5478 36.7508 48.0507C36.2286 48.1169 35.6966 48.1513 35.1568 48.1513C28.2144 48.1511 22.5663 42.5031 22.5663 35.5607V35.5607Z" fill="#FF6F00"/>
<path d="M55.7359 72.0003C64.7039 72.0003 71.9999 64.7042 71.9999 55.7363C71.9999 46.7682 64.7039 39.4722 55.7359 39.4722C51.3916 39.4722 47.4396 41.1843 44.5193 43.9692C44.2766 44.2392 44.0223 44.4985 43.7575 44.7466C41.0979 47.6432 39.4717 51.5032 39.4717 55.7363C39.4717 64.7042 46.7677 72.0003 55.7359 72.0003ZM53.6366 44.6268H57.8553V53.6269H63.049V57.8457H53.6366V44.6268Z" fill="#FF6F00"/>
<path d="M35.2934 57.0029C35.2477 57.0032 35.2024 57.0053 35.1567 57.0053C23.3321 57.0053 13.7121 47.3853 13.7121 35.5607C13.7121 23.7361 23.3321 14.1162 35.1567 14.1162C46.8849 14.1162 56.4425 23.5804 56.5975 35.2725C61.9538 35.4953 66.7848 37.7842 70.3132 41.362V28.4276L64.9908 27.6065C64.2628 24.7158 63.1232 21.9669 61.5894 19.4019L64.7741 15.0552L55.2579 5.53894L50.9112 8.72367C48.3465 7.18988 45.5974 6.05011 42.7065 5.32223L41.8856 0H28.4278L27.6067 5.32237C24.716 6.05039 21.967 7.19002 19.402 8.72381L15.0553 5.53908L5.53908 15.0553L8.72381 19.402C7.19002 21.9669 6.05025 24.716 5.32237 27.6067L0 28.4276V41.8854L5.32237 42.7065C6.05039 45.5974 7.19002 48.3463 8.72381 50.9112L5.53908 55.2579L15.0553 64.7741L19.402 61.5894C21.9669 63.1232 24.716 64.263 27.6067 64.9908L28.4278 70.3132H41.3622C37.8747 66.8741 35.612 62.1973 35.2934 57.0029Z" fill="#FF6F00"/>
</svg>
