<svg width="47" height="75" viewBox="0 0 47 75" fill="none" xmlns="http://www.w3.org/2000/svg">
<path d="M22.002 19.7095C22.1566 19.6392 22.2854 19.5223 22.3703 19.3753L25.0864 14.6708C25.3115 14.2811 25.1779 13.7827 24.7882 13.5577L23.1416 12.6071L23.8207 11.4309C24.0457 11.0412 23.9121 10.5429 23.5224 10.3179L19.2884 7.87335C18.9646 7.6864 18.5551 7.74382 18.2952 8.0126L17.1805 9.16541L11.6157 5.9526C11.226 5.72758 10.7276 5.8611 10.5026 6.25084L9.82364 7.42696L8.76979 6.81852C7.82731 6.27438 6.72938 6.1298 5.67816 6.41147L0.787046 7.72204C0.352373 7.83851 0.0944005 8.28534 0.210871 8.72001C0.327341 9.15468 0.774163 9.41265 1.20884 9.29618L6.09995 7.98561C6.73066 7.81662 7.3894 7.90336 7.95491 8.22986L9.00877 8.8383L7.5149 11.4258C6.39162 13.3713 7.06065 15.868 9.00615 16.9912L17.0037 21.6086C17.2316 21.7401 17.509 21.7535 17.7486 21.6446L22.002 19.7095ZM9.82097 15.5799C8.65369 14.9059 8.25225 13.4079 8.92622 12.2406L9.33365 11.5349L13.0401 13.6748L11.972 13.961C11.5374 14.0775 11.2794 14.5243 11.3959 14.959C11.5123 15.3936 11.9592 15.6516 12.3938 15.5351L14.0886 15.081L13.5464 17.7307L9.82097 15.5799Z" fill="#454554"/>
<path d="M29.2561 25.3972C29.3124 25.6074 29.4473 25.7831 29.6358 25.8919C29.8243 26.0007 30.0439 26.0296 30.254 25.9733L32.6149 25.3407C33.0489 25.2244 33.3074 24.7768 33.1911 24.3427L32.8326 23.0046C32.2036 20.6568 30.698 18.6946 28.5931 17.4793L26.1582 16.0736L24.1211 19.6019L26.5562 21.0078C27.7185 21.6788 28.5499 22.7624 28.8973 24.0587L29.2561 25.3972Z" fill="#454554"/>
<path d="M29.4784 74.6275C25.2188 74.6275 21.1529 74.3088 18.03 73.7298C16.2741 73.4043 13.245 72.6922 12.6872 71.5807L12.5918 71.3907L12.4276 26.3241H46.5292L46.3649 71.3906L46.2695 71.5805C45.7116 72.692 42.6826 73.4041 40.9267 73.7296C37.8039 74.3088 33.738 74.6275 29.4784 74.6275Z" fill="#FF6F00"/>
<path d="M37.0256 72.9169C32.766 72.9169 28.7001 72.5982 25.5772 72.0192C23.8213 71.6937 20.7921 70.9817 20.2344 69.8702L20.139 69.6802L19.981 26.3247H12.4276L12.5918 71.3912L12.6872 71.5812C13.2451 72.6926 16.2741 73.4047 18.03 73.7302C21.1529 74.3093 25.2188 74.628 29.4784 74.628C33.738 74.628 37.8039 74.3093 40.9268 73.7303C42.139 73.5055 43.9579 73.0964 45.1516 72.499C42.6841 72.7712 39.8996 72.9169 37.0256 72.9169Z" fill="#EE6A05"/>
<path d="M12.5574 61.9433C13.6143 62.7934 16.1172 63.3535 17.6657 63.6317C20.8881 64.2107 25.0832 64.5294 29.4785 64.5294C33.8737 64.5294 38.0688 64.2107 41.2912 63.6317C42.8397 63.3536 45.3426 62.7934 46.3995 61.9433L46.4897 37.1881L45.5637 37.6346C44.7049 38.0488 43.4207 38.4234 41.7469 38.7477C38.4703 39.3827 34.1135 39.7325 29.4786 39.7325C24.8437 39.7325 20.4867 39.3827 17.2103 38.7477C15.5364 38.4232 14.2522 38.0488 13.3934 37.6346L12.4674 37.1881L12.5574 61.9433Z" fill="#31313F"/>
<path d="M17.6657 63.6318C18.4314 63.7694 19.2533 63.8916 20.1184 63.999L20.028 39.1905C19.0235 39.0635 18.0779 38.9159 17.2102 38.7477C15.5363 38.4232 14.2521 38.0488 13.3933 37.6346L12.4673 37.1881L12.5406 57.314L12.5575 61.9433C13.6142 62.7936 16.1172 63.3537 17.6657 63.6318Z" fill="#22222B"/>
<path d="M29.4784 29.7467C25.2188 29.7467 21.153 29.428 18.03 28.849C15.1438 28.3138 13.2714 27.5938 12.7579 26.8215L12.4276 26.3245L12.7579 25.8276C13.2714 25.0551 15.1438 24.3352 18.03 23.8001C21.153 23.2211 25.2188 22.9023 29.4784 22.9023C33.738 22.9023 37.8038 23.2211 40.9268 23.8001C43.8131 24.3352 45.6854 25.0551 46.1989 25.8276L46.5293 26.3245L46.1989 26.8215C45.6854 27.5939 43.8131 28.3138 40.9268 28.849C37.8038 29.428 33.738 29.7467 29.4784 29.7467Z" fill="#31313F"/>
<path d="M23.8045 28.849C20.9182 28.3138 19.0459 27.5938 18.5324 26.8215C18.3322 26.5204 18.3322 26.1286 18.5324 25.8276C19.0459 25.0551 20.9182 24.3352 23.8045 23.8001C26.212 23.3537 29.1807 23.0629 32.3656 22.9526C31.419 22.9198 30.4543 22.9023 29.4784 22.9023C25.2188 22.9023 21.153 23.2211 18.03 23.8001C15.1438 24.3352 13.2714 25.0552 12.7579 25.8276L12.4276 26.3245L12.7579 26.8215C13.2714 27.5939 15.1438 28.3138 18.03 28.849C21.153 29.428 25.2188 29.7467 29.4784 29.7467C30.4543 29.7467 31.419 29.7292 32.3656 29.6964C29.1806 29.5862 26.2119 29.2953 23.8045 28.849Z" fill="#22222B"/>
<path d="M26.7387 52.8928C27.3618 53.5159 27.8971 54.0513 28.5202 54.6743C28.7937 54.4009 29.035 54.3425 29.411 54.3053L30.6707 53.0465L29.411 51.7877C28.4087 51.7877 27.4516 52.1799 26.7387 52.8928V52.8928Z" fill="#FF6F00"/>
<path d="M32.0832 52.8925C31.3702 52.1795 30.4131 51.7874 29.411 51.7874V54.3049C29.7474 54.3049 30.0638 54.4359 30.3017 54.6739C30.9248 54.0509 31.4601 53.5155 32.0832 52.8925V52.8925Z" fill="#FF6F00"/>
<path d="M23.1757 49.3286C23.7988 49.9517 24.3342 50.4871 24.9572 51.1101C26.1456 49.9218 27.7408 49.2682 29.411 49.2682L30.6707 48.0091L29.411 46.75C27.0768 46.7501 24.8423 47.662 23.1757 49.3286V49.3286Z" fill="#FF6F00"/>
<path d="M33.8648 51.11L35.6463 49.3285C33.9825 47.6647 31.7492 46.75 29.411 46.75V49.2682C31.0783 49.2682 32.6743 49.9196 33.8648 51.11V51.11Z" fill="#FF6F00"/>
</svg>
