<svg width="41" height="41" viewBox="0 0 41 41" fill="none" xmlns="http://www.w3.org/2000/svg">
<path d="M20.14 40.28C31.263 40.28 40.28 31.263 40.28 20.14C40.28 9.01698 31.263 0 20.14 0C9.01698 0 0 9.01698 0 20.14C0 31.263 9.01698 40.28 20.14 40.28Z" fill="#FF6F00"/>
<path d="M9.91997 11.7896H30.38C30.74 11.7896 31.08 11.9396 31.32 12.1796C31.56 12.4196 31.71 12.7496 31.71 13.1196V27.1796C31.71 27.4496 31.63 27.7096 31.48 27.9196C31.45 27.9896 31.41 28.0496 31.36 28.1096C31.32 28.1496 31.28 28.1696 31.24 28.1996C31.01 28.3896 30.71 28.5096 30.39 28.5096H9.91997C9.55997 28.5096 9.21997 28.3596 8.97997 28.1196C8.73997 27.8796 8.58997 27.5496 8.58997 27.1796V13.1196C8.58997 12.7496 8.73997 12.4196 8.97997 12.1796C9.21997 11.9396 9.54997 11.7896 9.91997 11.7896ZM9.60997 26.6196L16.78 19.4296L9.60997 13.5796V26.6196V26.6196ZM17.57 20.0695L10.18 27.4796H30.06L23 20.0695L20.67 22.0496C20.49 22.2096 20.21 22.2096 20.02 22.0596L17.57 20.0695ZM23.76 19.4096L30.68 26.6696V13.5196L23.76 19.4096ZM10.26 12.8096L20.32 21.0196L29.95 12.8096H10.26Z" fill="#F9F9F9"/>
<path d="M30.37 28.5797H9.92002C9.55002 28.5797 9.20002 28.4297 8.93002 28.1697C8.66002 27.8997 8.52002 27.5497 8.52002 27.1797V13.1197C8.52002 12.7497 8.67002 12.3897 8.93002 12.1297C9.19002 11.8597 9.55002 11.7197 9.92002 11.7197H30.38C30.75 11.7197 31.1 11.8697 31.37 12.1297C31.64 12.3997 31.78 12.7497 31.78 13.1197V27.1797C31.78 27.4597 31.7 27.7297 31.54 27.9697C31.52 28.0397 31.47 28.1097 31.41 28.1697C31.37 28.2097 31.32 28.2397 31.27 28.2697C31.02 28.4597 30.7 28.5797 30.37 28.5797ZM9.92002 11.8697C9.59002 11.8697 9.27002 11.9997 9.04002 12.2397C8.80002 12.4797 8.67002 12.7897 8.67002 13.1197V27.1797C8.67002 27.5097 8.80002 27.8297 9.04002 28.0597C9.28002 28.2997 9.59002 28.4297 9.92002 28.4297H30.38C30.67 28.4297 30.95 28.3297 31.18 28.1397C31.23 28.1097 31.27 28.0897 31.3 28.0597C31.35 28.0197 31.38 27.9597 31.41 27.8997C31.56 27.6797 31.63 27.4297 31.63 27.1797V13.1197C31.63 12.7897 31.5 12.4697 31.26 12.2397C31.02 11.9997 30.71 11.8697 30.38 11.8697H9.92002ZM30.23 27.5597H9.99002L17.56 19.9697L20.06 22.0097C20.22 22.1397 20.45 22.1397 20.61 21.9997L22.99 19.9697L30.23 27.5597ZM10.36 27.4097H29.88L22.99 20.1797L20.72 22.1197C20.51 22.2997 20.19 22.3097 19.97 22.1297L17.58 20.1797L10.36 27.4097ZM30.76 26.8597L23.65 19.4097L30.76 13.3597V26.8597ZM23.87 19.4197L30.6 26.4797V13.6797L23.87 19.4197ZM9.53002 26.7997V13.4197L16.89 19.4197L9.53002 26.7997ZM9.68002 13.7397V26.4297L16.66 19.4297L9.68002 13.7397ZM20.32 21.1097L10.04 12.7297H30.16L20.32 21.1097ZM10.47 12.8797L20.32 20.9097L29.75 12.8797H10.47Z" fill="#F9F9F9"/>
</svg>
