<svg width="64" height="64" viewBox="0 0 64 64" fill="none" xmlns="http://www.w3.org/2000/svg">
<path d="M57.6001 6.40002H54.4001V3.20001C54.4001 1.28 53.1201 0 51.2001 0C49.2801 0 48.0001 1.28 48.0001 3.20001V6.40002H16V3.20001C16 1.28 14.72 0 12.8 0C10.88 0 9.60002 1.28 9.60002 3.20001V6.40002H3.20001C1.6 6.40002 0 7.68002 0 9.60002V54.4001C0 56.3201 1.6 57.6001 3.20001 57.6001H22.7201C20.4801 53.7601 19.2 49.2801 19.2 44.8001C19.2 30.7201 30.7201 19.2 44.8001 19.2C50.8801 19.2 56.3201 21.4401 60.8002 24.9601V9.60002C60.8002 8.00002 59.2001 6.40002 57.6001 6.40002Z" fill="#FF6F00"/>
<path d="M44.8001 25.5996C34.2401 25.5996 25.6001 34.2396 25.6001 44.7997C25.6001 55.3597 34.2401 63.9997 44.8001 63.9997C55.3602 63.9997 64.0002 55.3597 64.0002 44.7997C64.0002 34.2396 55.3602 25.5996 44.8001 25.5996ZM51.2002 47.9997H44.8001C42.8801 47.9997 41.6001 46.7197 41.6001 44.7997V35.1996C41.6001 33.2796 42.8801 31.9996 44.8001 31.9996C46.7201 31.9996 48.0002 33.2796 48.0002 35.1996V41.5996H51.2002C53.1202 41.5996 54.4002 42.8797 54.4002 44.7997C54.4002 46.7197 53.1202 47.9997 51.2002 47.9997Z" fill="#FF6F00"/>
</svg>
