<svg width="41" height="41" viewBox="0 0 41 41" fill="none" xmlns="http://www.w3.org/2000/svg">
<path d="M20.14 40.28C31.263 40.28 40.28 31.263 40.28 20.14C40.28 9.01698 31.263 0 20.14 0C9.01698 0 0 9.01698 0 20.14C0 31.263 9.01698 40.28 20.14 40.28Z" fill="#FF6F00"/>
<path d="M20.4002 32.6305C20.1602 32.6305 19.9302 32.5605 19.7202 32.4305C17.6402 31.1005 15.8402 29.5005 14.3702 27.6605C12.4302 25.2305 11.1802 22.5205 10.7502 19.8205C10.2902 17.0005 10.7602 14.4005 12.1002 12.2905C12.6502 11.4205 13.3602 10.6405 14.1902 9.98047C16.1202 8.44047 18.3302 7.64048 20.5402 7.65048C22.7602 7.67048 24.8602 8.52048 26.6202 10.1205C27.2402 10.6905 27.7902 11.3505 28.2402 12.1005C29.6502 14.4205 30.0602 17.4605 29.3902 20.6705C28.7802 23.6505 27.2802 26.6005 25.1602 29.0005L24.9702 29.2205C23.8202 30.4805 22.5202 31.5605 21.1102 32.4105C20.9002 32.5605 20.6502 32.6305 20.4002 32.6305ZM20.4802 9.12048C18.6202 9.12048 16.7602 9.81048 15.1102 11.1305C14.4102 11.6905 13.8202 12.3405 13.3502 13.0805C12.2102 14.8805 11.8102 17.1305 12.2102 19.5805C12.6002 22.0305 13.7502 24.5105 15.5302 26.7405C16.8702 28.4205 18.5002 29.8905 20.4002 31.1205C21.5902 30.3905 22.7002 29.4805 23.6902 28.4305L23.8802 28.2205C25.9202 25.9805 27.3702 23.1905 27.9502 20.3805C28.5402 17.5305 28.1902 14.8705 26.9802 12.8705C26.6002 12.2505 26.1402 11.6905 25.6202 11.2205C24.1402 9.87048 22.3802 9.15048 20.5202 9.13048C20.5102 9.12048 20.4902 9.12048 20.4802 9.12048ZM20.1502 22.4505C17.3202 22.4505 15.0202 20.1505 15.0202 17.3205C15.0202 15.9505 15.5502 14.6705 16.5102 13.7005C17.4802 12.7305 18.7702 12.1905 20.1402 12.1905C22.9702 12.1905 25.2702 14.4905 25.2702 17.3205C25.2802 20.1505 22.9802 22.4505 20.1502 22.4505ZM20.1502 13.6705C19.1702 13.6705 18.2502 14.0505 17.5602 14.7405C16.8702 15.4305 16.4902 16.3505 16.5002 17.3205C16.5002 19.3405 18.1402 20.9805 20.1502 20.9805C22.1702 20.9805 23.8102 19.3405 23.8102 17.3205C23.8002 15.3105 22.1602 13.6705 20.1502 13.6705Z" fill="#F9F9F9"/>
</svg>
