<svg width="65" height="76" viewBox="0 0 65 76" fill="none" xmlns="http://www.w3.org/2000/svg">
<path d="M32.5775 23.5205C24.5926 23.5205 18.0968 30.0164 18.0968 38.0006C18.0968 45.9855 24.5926 52.4813 32.5775 52.4813C40.5618 52.4813 47.0576 45.9855 47.0576 38.0006C47.0576 30.0164 40.5618 23.5205 32.5775 23.5205ZM41.1747 35.2737L30.8009 45.6474C30.3654 46.0829 29.7943 46.3009 29.2238 46.3009C28.6532 46.3009 28.0827 46.0835 27.6472 45.6474L23.6829 41.6831C22.812 40.8128 22.812 39.4009 23.6829 38.53C24.5532 37.6591 25.9651 37.6591 26.836 38.53L29.2238 40.9178L38.0215 32.1206C38.8919 31.2497 40.3037 31.2497 41.1747 32.1206C42.0456 32.9909 42.0456 34.4028 41.1747 35.2737Z" fill="#FF6F00"/>
<path d="M64.861 20.6206L64.8587 20.5615C64.8256 19.8315 64.8036 19.0591 64.7903 18.1998C64.7282 14.0094 61.3971 10.5432 57.2061 10.3089C48.4681 9.82129 41.7084 6.97201 35.9327 1.34245L35.8834 1.29548C33.9996 -0.431828 31.1578 -0.431828 29.2734 1.29548L29.2241 1.34245C23.4484 6.97201 16.6888 9.8213 7.95075 10.3095C3.76032 10.5432 0.428621 14.0094 0.366579 18.2004C0.353823 19.0539 0.33121 19.8263 0.29816 20.5615L0.294681 20.6989C0.124791 29.6091 -0.0862672 40.6984 3.62348 50.7636C5.66332 56.2987 8.75265 61.1101 12.8051 65.0651C17.4205 69.5692 23.4658 73.145 30.7728 75.6928C31.0106 75.7757 31.2576 75.843 31.5092 75.8934C31.8641 75.9642 32.2212 75.9995 32.5784 75.9995C32.9356 75.9995 33.2934 75.9642 33.6476 75.8934C33.8993 75.843 34.148 75.7751 34.3869 75.6917C41.6852 73.1392 47.7241 69.5617 52.3355 65.0582C56.3862 61.102 59.4755 56.2894 61.5171 50.7532C65.2408 40.6578 65.0303 29.5477 64.861 20.6206ZM32.5773 56.9411C22.1334 56.9411 13.6371 48.4449 13.6371 38.001C13.6371 27.5571 22.1334 19.0609 32.5773 19.0609C43.0206 19.0609 51.5174 27.5571 51.5174 38.001C51.5174 48.4449 43.0206 56.9411 32.5773 56.9411Z" fill="#FF6F00"/>
</svg>
